# xmcd
#
# Track frame offsets:
#	150
#	9585
#	22764
#	37085
#	52585
#	63132
#	75436
#	88089
#	102179
#	115417
#	124345
#	138992
#	151384
#	164301
#
# Disc length: 2361 seconds
#
# Revision: 1
# Processed by: cddbd v1.5.1PL2 Copyright (c) Steve Scherf et al.
# Submitted via: audiograbber 1.83.01
#
DISCID=a309370e
DTITLE=Esther und Abi Ofarim - Lieder und Songs 
DYEAR=1900
DGENRE=
TTITLE0=Adama Adamati
TTITLE1=Hush a Bye
TTITLE2=Go Tell It On The Mountains
TTITLE3=Les Trois Cloches
TTITLE4=La guajira
TTITLE5=Dirty Old Town
TTITLE6=Shtematy
TTITLE7=Thats My Song
TTITLE8=Drunten im Tale
TTITLE9=Viva la feria
TTITLE10=Oh Waly Waly
TTITLE11=Cha Cha Ballahoo
TTITLE12=Lay La
TTITLE13=What Have They Done To The Tain
EXTD=Schallplatte
EXTT0=
EXTT1=
EXTT2=
EXTT3=
EXTT4=
EXTT5=
EXTT6=
EXTT7=
EXTT8=
EXTT9=
EXTT10=
EXTT11=
EXTT12=
EXTT13=
PLAYORDER=
